<?xml version="1.0" encoding="UTF-8" standalone="no"?><!DOCTYPE svg PUBLIC "-//W3C//DTD SVG 1.1//EN" "http://www.w3.org/Graphics/SVG/1.1/DTD/svg11.dtd"><svg width="100%" height="100%" viewBox="0 0 15 15" version="1.1" xmlns="http://www.w3.org/2000/svg" xmlns:xlink="http://www.w3.org/1999/xlink" xml:space="preserve" xmlns:serif="http://www.serif.com/" style="fill-rule:evenodd;clip-rule:evenodd;stroke-linejoin:round;stroke-miterlimit:2;"><path d="M7.2,0c3.974,0 7.2,3.226 7.2,7.2c-0,3.974 -3.226,7.2 -7.2,7.2c-3.974,-0 -7.2,-3.226 -7.2,-7.2c0,-3.974 3.226,-7.2 7.2,-7.2Zm1.852,7.982l2.326,0.703c-0.157,0.653 -0.403,1.198 -0.739,1.635c-0.335,0.438 -0.752,0.768 -1.251,0.99c-0.498,0.223 -1.131,0.334 -1.901,0.334c-0.933,0 -1.696,-0.135 -2.288,-0.407c-0.592,-0.271 -1.103,-0.749 -1.532,-1.433c-0.43,-0.683 -0.645,-1.558 -0.645,-2.625c0,-1.421 0.378,-2.514 1.134,-3.278c0.756,-0.763 1.825,-1.145 3.208,-1.145c1.082,-0 1.933,0.218 2.552,0.656c0.619,0.437 1.079,1.109 1.38,2.016l-2.344,0.521c-0.082,-0.262 -0.168,-0.453 -0.258,-0.574c-0.148,-0.203 -0.33,-0.36 -0.545,-0.469c-0.215,-0.109 -0.455,-0.164 -0.72,-0.164c-0.602,-0 -1.063,0.242 -1.383,0.727c-0.242,0.359 -0.364,0.923 -0.364,1.693c0,0.953 0.145,1.606 0.434,1.96c0.289,0.353 0.695,0.53 1.219,0.53c0.508,0 0.891,-0.142 1.151,-0.428c0.26,-0.285 0.448,-0.699 0.566,-1.242Z" style="fill:#060;"/></svg>