<?xml version="1.0" encoding="UTF-8" standalone="no"?><!DOCTYPE svg PUBLIC "-//W3C//DTD SVG 1.1//EN" "http://www.w3.org/Graphics/SVG/1.1/DTD/svg11.dtd"><svg width="100%" height="100%" viewBox="0 0 15 15" version="1.1" xmlns="http://www.w3.org/2000/svg" xmlns:xlink="http://www.w3.org/1999/xlink" xml:space="preserve" xmlns:serif="http://www.serif.com/" style="fill-rule:evenodd;clip-rule:evenodd;stroke-linejoin:round;stroke-miterlimit:2;"><path d="M7.2,0c3.974,0 7.2,3.226 7.2,7.2c0,3.974 -3.226,7.2 -7.2,7.2c-3.974,0 -7.2,-3.226 -7.2,-7.2c0,-3.974 3.226,-7.2 7.2,-7.2Zm-3.896,8.653l2.525,-0.158c0.055,0.41 0.166,0.723 0.334,0.937c0.273,0.348 0.664,0.522 1.172,0.522c0.379,0 0.671,-0.089 0.876,-0.267c0.205,-0.177 0.307,-0.383 0.307,-0.618c0,-0.223 -0.097,-0.422 -0.293,-0.598c-0.195,-0.175 -0.648,-0.341 -1.359,-0.498c-1.164,-0.261 -1.994,-0.609 -2.49,-1.043c-0.5,-0.433 -0.75,-0.986 -0.75,-1.658c0,-0.441 0.128,-0.858 0.384,-1.251c0.255,-0.392 0.64,-0.701 1.154,-0.925c0.514,-0.225 1.218,-0.337 2.112,-0.337c1.098,0 1.935,0.204 2.511,0.612c0.576,0.408 0.919,1.058 1.028,1.948l-2.502,0.147c-0.066,-0.387 -0.206,-0.668 -0.419,-0.844c-0.213,-0.176 -0.507,-0.264 -0.882,-0.264c-0.308,0 -0.541,0.066 -0.697,0.196c-0.156,0.131 -0.234,0.291 -0.234,0.478c0,0.137 0.064,0.26 0.193,0.369c0.125,0.113 0.422,0.219 0.891,0.317c1.16,0.25 1.991,0.503 2.493,0.758c0.502,0.256 0.867,0.574 1.096,0.953c0.228,0.378 0.342,0.802 0.342,1.271c0,0.551 -0.152,1.059 -0.457,1.523c-0.304,0.465 -0.73,0.818 -1.277,1.058c-0.547,0.24 -1.236,0.36 -2.068,0.36c-1.461,0 -2.473,-0.281 -3.035,-0.843c-0.563,-0.563 -0.881,-1.278 -0.955,-2.145Z" style="fill:#f90;"/></svg>